Urbanist-Thin.ufo
<glyph name="exclam" format="2">
  <advance width="290"/>
  <unicode hex="0021"/>
  <outline>
    <contour>
      <point x="96" y="420" type="line"/>
      <point x="156" y="420" type="line"/>
      <point x="156" y="1400" type="line"/>
      <point x="96" y="1400" type="line"/>
    </contour>
    <contour>
      <point x="126" y="-26" type="curve" smooth="yes"/>
      <point x="150" y="-26"/>
      <point x="170" y="-6"/>
      <point x="170" y="20" type="curve" smooth="yes"/>
      <point x="170" y="44"/>
      <point x="150" y="64"/>
      <point x="126" y="64" type="curve" smooth="yes"/>
      <point x="100" y="64"/>
      <point x="80" y="44"/>
      <point x="80" y="20" type="curve" smooth="yes"/>
      <point x="80" y="-6"/>
      <point x="100" y="-26"/>
    </contour>
  </outline>
</glyph>
<glyph name="percent" format="2">
  <advance width="1108"/>
  <unicode hex="0025"/>
  <outline>
    <contour>
      <point x="114" y="0" type="line"/>
      <point x="184" y="0" type="line"/>
      <point x="992" y="1400" type="line"/>
      <point x="922" y="1400" type="line"/>
    </contour>
    <contour>
      <point x="272" y="900" type="curve"/>
      <point x="378" y="900"/>
      <point x="464" y="986"/>
      <point x="464" y="1092" type="curve"/>
      <point x="464" y="1198"/>
      <point x="378" y="1286"/>
      <point x="272" y="1286" type="curve"/>
      <point x="166" y="1286"/>
      <point x="80" y="1198"/>
      <point x="80" y="1092" type="curve"/>
      <point x="80" y="986"/>
      <point x="166" y="900"/>
    </contour>
    <contour>
      <point x="272" y="960" type="curve"/>
      <point x="198" y="960"/>
      <point x="140" y="1020"/>
      <point x="140" y="1092" type="curve"/>
      <point x="140" y="1166"/>
      <point x="198" y="1226"/>
      <point x="272" y="1226" type="curve"/>
      <point x="346" y="1226"/>
      <point x="404" y="1166"/>
      <point x="404" y="1092" type="curve"/>
      <point x="404" y="1020"/>
      <point x="346" y="960"/>
    </contour>
    <contour>
      <point x="836" y="114" type="curve"/>
      <point x="942" y="114"/>
      <point x="1028" y="202"/>
      <point x="1028" y="308" type="curve"/>
      <point x="1028" y="414"/>
      <point x="942" y="500"/>
      <point x="836" y="500" type="curve"/>
      <point x="730" y="500"/>
      <point x="642" y="414"/>
      <point x="642" y="308" type="curve"/>
      <point x="642" y="202"/>
      <point x="730" y="114"/>
    </contour>
    <contour>
      <point x="836" y="174" type="curve"/>
      <point x="762" y="174"/>
      <point x="702" y="234"/>
      <point x="702" y="308" type="curve"/>
      <point x="702" y="380"/>
      <point x="762" y="440"/>
      <point x="836" y="440" type="curve"/>
      <point x="908" y="440"/>
      <point x="968" y="380"/>
      <point x="968" y="308" type="curve"/>
      <point x="968" y="234"/>
      <point x="908" y="174"/>
    </contour>
  </outline>
</glyph>
<glyph name="four" format="2">
  <advance width="1040"/>
  <unicode hex="0034"/>
  <outline>
    <contour>
      <point x="690" y="0" type="line"/>
      <point x="750" y="0" type="line"/>
      <point x="750" y="434" type="line"/>
      <point x="920" y="434" type="line"/>
      <point x="920" y="494" type="line"/>
      <point x="750" y="494" type="line"/>
      <point x="750" y="1400" type="line"/>
      <point x="670" y="1400" type="line"/>
      <point x="80" y="498" type="line"/>
      <point x="80" y="434" type="line"/>
      <point x="690" y="434" type="line"/>
    </contour>
    <contour>
      <point x="156" y="498" type="line"/>
      <point x="686" y="1302" type="line"/>
      <point x="690" y="494" type="line"/>
    </contour>
  </outline>
</glyph>
<glyph name="six" format="2">
  <advance width="1060"/>
  <unicode hex="0036"/>
  <outline>
    <contour>
      <point x="524" y="-26" type="curve" smooth="yes"/>
      <point x="786" y="-26"/>
      <point x="1000" y="188"/>
      <point x="1000" y="450" type="curve" smooth="yes"/>
      <point x="1000" y="820"/>
      <point x="594" y="1044"/>
      <point x="282" y="858" type="curve"/>
      <point x="594" y="1400" type="line"/>
      <point x="524" y="1400" type="line"/>
      <point x="124" y="704" type="line"/>
      <point x="76" y="610"/>
      <point x="50" y="560"/>
      <point x="50" y="450" type="curve" smooth="yes"/>
      <point x="50" y="188"/>
      <point x="264" y="-26"/>
    </contour>
    <contour>
      <point x="524" y="34" type="curve" smooth="yes"/>
      <point x="302" y="34"/>
      <point x="110" y="216"/>
      <point x="110" y="452" type="curve" smooth="yes"/>
      <point x="110" y="672"/>
      <point x="290" y="864"/>
      <point x="526" y="864" type="curve" smooth="yes"/>
      <point x="754" y="864"/>
      <point x="940" y="680"/>
      <point x="940" y="452" type="curve" smooth="yes"/>
      <point x="940" y="232"/>
      <point x="766" y="34"/>
    </contour>
  </outline>
</glyph>
<glyph name="nine" format="2">
  <advance width="1020"/>
  <unicode hex="0039"/>
  <outline>
    <contour>
      <point x="400" y="0" type="line"/>
      <point x="468" y="0" type="line"/>
      <point x="888" y="734" type="line"/>
      <point x="934" y="824"/>
      <point x="960" y="870"/>
      <point x="960" y="974" type="curve" smooth="yes"/>
      <point x="960" y="1222"/>
      <point x="756" y="1426"/>
      <point x="510" y="1426" type="curve" smooth="yes"/>
      <point x="262" y="1426"/>
      <point x="60" y="1222"/>
      <point x="60" y="974" type="curve" smooth="yes"/>
      <point x="60" y="624"/>
      <point x="444" y="412"/>
      <point x="740" y="588" type="curve"/>
    </contour>
    <contour>
      <point x="508" y="582" type="curve" smooth="yes"/>
      <point x="292" y="582"/>
      <point x="116" y="756"/>
      <point x="116" y="972" type="curve" smooth="yes"/>
      <point x="116" y="1182"/>
      <point x="280" y="1368"/>
      <point x="510" y="1368" type="curve" smooth="yes"/>
      <point x="720" y="1368"/>
      <point x="902" y="1196"/>
      <point x="902" y="972" type="curve" smooth="yes"/>
      <point x="902" y="764"/>
      <point x="732" y="582"/>
    </contour>
  </outline>
</glyph>
<glyph name="question" format="2">
  <advance width="922"/>
  <unicode hex="003F"/>
  <outline>
    <contour>
      <point x="424" y="522" type="curve"/>
      <point x="484" y="522" type="line"/>
      <point x="484" y="617"/>
      <point x="534" y="701"/>
      <point x="618" y="746" type="curve" smooth="yes"/>
      <point x="732" y="808"/>
      <point x="802" y="930"/>
      <point x="802" y="1066" type="curve" smooth="yes"/>
      <point x="802" y="1266"/>
      <point x="640" y="1428"/>
      <point x="440" y="1428" type="curve" smooth="yes"/>
      <point x="242" y="1428"/>
      <point x="80" y="1266"/>
      <point x="80" y="1066" type="curve"/>
      <point x="140" y="1066" type="line"/>
      <point x="140" y="1234"/>
      <point x="274" y="1368"/>
      <point x="440" y="1368" type="curve" smooth="yes"/>
      <point x="606" y="1368"/>
      <point x="742" y="1234"/>
      <point x="742" y="1066" type="curve" smooth="yes"/>
      <point x="742" y="952"/>
      <point x="684" y="850"/>
      <point x="590" y="800" type="curve" smooth="yes"/>
      <point x="486" y="743"/>
      <point x="424" y="639"/>
    </contour>
    <contour>
      <point x="440" y="-26" type="curve" smooth="yes"/>
      <point x="466" y="-26"/>
      <point x="486" y="-4"/>
      <point x="486" y="20" type="curve" smooth="yes"/>
      <point x="486" y="44"/>
      <point x="466" y="64"/>
      <point x="440" y="64" type="curve" smooth="yes"/>
      <point x="416" y="64"/>
      <point x="396" y="44"/>
      <point x="396" y="20" type="curve" smooth="yes"/>
      <point x="396" y="-4"/>
      <point x="416" y="-26"/>
    </contour>
  </outline>
</glyph>
<glyph name="at" format="2">
  <advance width="1651"/>
  <unicode hex="0040"/>
  <outline>
    <contour>
      <point x="826" y="-136" type="curve"/>
      <point x="826" y="-76" type="line"/>
      <point x="448" y="-76"/>
      <point x="140" y="173"/>
      <point x="140" y="551" type="curve" smooth="yes"/>
      <point x="140" y="931"/>
      <point x="450" y="1236"/>
      <point x="826" y="1236" type="curve" smooth="yes"/>
      <point x="1204" y="1236"/>
      <point x="1511" y="929"/>
      <point x="1511" y="551" type="curve" smooth="yes"/>
      <point x="1511" y="373"/>
      <point x="1447" y="189"/>
      <point x="1306" y="189" type="curve" smooth="yes"/>
      <point x="1231" y="189"/>
      <point x="1150" y="250"/>
      <point x="1150" y="325" type="curve" smooth="yes"/>
      <point x="1150" y="928" type="line"/>
      <point x="1090" y="928" type="line"/>
      <point x="1090" y="767" type="line"/>
      <point x="1033" y="876"/>
      <point x="929" y="948"/>
      <point x="789" y="948" type="curve" smooth="yes"/>
      <point x="570" y="948"/>
      <point x="392" y="770"/>
      <point x="392" y="551" type="curve" smooth="yes"/>
      <point x="392" y="331"/>
      <point x="570" y="153"/>
      <point x="789" y="153" type="curve" smooth="yes"/>
      <point x="929" y="153"/>
      <point x="1033" y="225"/>
      <point x="1090" y="334" type="curve"/>
      <point x="1090" y="215"/>
      <point x="1196" y="129"/>
      <point x="1306" y="129" type="curve" smooth="yes"/>
      <point x="1473" y="129"/>
      <point x="1571" y="361"/>
      <point x="1571" y="551" type="curve" smooth="yes"/>
      <point x="1571" y="960"/>
      <point x="1242" y="1296"/>
      <point x="826" y="1296" type="curve" smooth="yes"/>
      <point x="414" y="1296"/>
      <point x="80" y="962"/>
      <point x="80" y="551" type="curve" smooth="yes"/>
      <point x="80" y="141"/>
      <point x="415" y="-136"/>
    </contour>
    <contour>
      <point x="789" y="213" type="curve" smooth="yes"/>
      <point x="607" y="213"/>
      <point x="452" y="360"/>
      <point x="452" y="551" type="curve" smooth="yes"/>
      <point x="452" y="738"/>
      <point x="601" y="888"/>
      <point x="789" y="888" type="curve" smooth="yes"/>
      <point x="992" y="888"/>
      <point x="1083" y="732"/>
      <point x="1083" y="569" type="curve" smooth="yes"/>
      <point x="1083" y="395"/>
      <point x="977" y="213"/>
    </contour>
  </outline>
</glyph>
<glyph name="J" format="2">
  <advance width="738"/>
  <unicode hex="004A"/>
  <outline>
    <contour>
      <point x="264" y="-26" type="curve" smooth="yes"/>
      <point x="460" y="-26"/>
      <point x="618" y="152"/>
      <point x="618" y="346" type="curve" smooth="yes"/>
      <point x="618" y="1400" type="line"/>
      <point x="558" y="1400" type="line"/>
      <point x="558" y="346" type="line" smooth="yes"/>
      <point x="558" y="184"/>
      <point x="426" y="34"/>
      <point x="264" y="34" type="curve" smooth="yes"/>
      <point x="196" y="34"/>
      <point x="130" y="58"/>
      <point x="78" y="102" type="curve"/>
      <point x="40" y="56" type="line"/>
      <point x="102" y="2"/>
      <point x="182" y="-26"/>
    </contour>
  </outline>
</glyph>
<glyph name="L" format="2">
  <advance width="970"/>
  <unicode hex="004C"/>
  <outline>
    <contour>
      <point x="120" y="0" type="line"/>
      <point x="870" y="0" type="line"/>
      <point x="870" y="60" type="line"/>
      <point x="180" y="60" type="line"/>
      <point x="180" y="1400" type="line"/>
      <point x="120" y="1400" type="line"/>
    </contour>
  </outline>
</glyph>
<glyph name="T" format="2">
  <advance width="1258"/>
  <unicode hex="0054"/>
  <outline>
    <contour>
      <point x="1178" y="1400" type="line"/>
      <point x="80" y="1400" type="line"/>
      <point x="80" y="1340" type="line"/>
      <point x="598" y="1340" type="line"/>
      <point x="598" y="0" type="line"/>
      <point x="658" y="0" type="line"/>
      <point x="658" y="1340" type="line"/>
      <point x="1178" y="1340" type="line"/>
    </contour>
  </outline>
</glyph>
<glyph name="V" format="2">
  <advance width="1118"/>
  <unicode hex="0056"/>
  <outline>
    <contour>
      <point x="528" y="0" type="line"/>
      <point x="588" y="0" type="line"/>
      <point x="1098" y="1400" type="line"/>
      <point x="1034" y="1400" type="line"/>
      <point x="558" y="92" type="line"/>
      <point x="84" y="1400" type="line"/>
      <point x="20" y="1400" type="line"/>
    </contour>
  </outline>
</glyph>
<glyph name="Y" format="2">
  <advance width="1108"/>
  <unicode hex="0059"/>
  <outline>
    <contour>
      <point x="978" y="1400" type="line"/>
      <point x="554" y="702" type="line"/>
      <point x="130" y="1400" type="line"/>
      <point x="60" y="1400" type="line"/>
      <point x="524" y="636" type="line"/>
      <point x="524" y="0" type="line"/>
      <point x="584" y="0" type="line"/>
      <point x="584" y="636" type="line"/>
      <point x="1048" y="1400" type="line"/>
    </contour>
  </outline>
</glyph>
<glyph name="a" format="2">
  <advance width="1184"/>
  <unicode hex="0061"/>
  <outline>
    <contour>
      <point x="1004" y="1000" type="line"/>
      <point x="1004" y="768" type="line"/>
      <point x="932" y="924"/>
      <point x="790" y="1028"/>
      <point x="596" y="1028" type="curve"/>
      <point x="306" y="1028"/>
      <point x="70" y="792"/>
      <point x="70" y="500" type="curve"/>
      <point x="70" y="210"/>
      <point x="306" y="-26"/>
      <point x="596" y="-26" type="curve"/>
      <point x="790" y="-26"/>
      <point x="932" y="78"/>
      <point x="1004" y="234" type="curve"/>
      <point x="1004" y="0" type="line"/>
      <point x="1064" y="0" type="line"/>
      <point x="1064" y="1000" type="line"/>
    </contour>
    <contour>
      <point x="596" y="34" type="curve"/>
      <point x="346" y="34"/>
      <point x="130" y="238"/>
      <point x="130" y="500" type="curve"/>
      <point x="130" y="758"/>
      <point x="338" y="968"/>
      <point x="596" y="968" type="curve"/>
      <point x="850" y="968"/>
      <point x="1000" y="762"/>
      <point x="1000" y="500" type="curve"/>
      <point x="1000" y="244"/>
      <point x="854" y="34"/>
    </contour>
  </outline>
</glyph>
<glyph name="b" format="2">
  <advance width="1174"/>
  <unicode hex="0062"/>
  <outline>
    <contour>
      <point x="588" y="1028" type="curve"/>
      <point x="394" y="1028"/>
      <point x="252" y="924"/>
      <point x="180" y="768" type="curve"/>
      <point x="180" y="1500" type="line"/>
      <point x="120" y="1500" type="line"/>
      <point x="120" y="0" type="line"/>
      <point x="180" y="0" type="line"/>
      <point x="180" y="234" type="line"/>
      <point x="252" y="78"/>
      <point x="394" y="-26"/>
      <point x="588" y="-26" type="curve"/>
      <point x="878" y="-26"/>
      <point x="1114" y="210"/>
      <point x="1114" y="500" type="curve"/>
      <point x="1114" y="792"/>
      <point x="878" y="1028"/>
    </contour>
    <contour>
      <point x="588" y="34" type="curve"/>
      <point x="334" y="34"/>
      <point x="184" y="240"/>
      <point x="184" y="500" type="curve"/>
      <point x="184" y="756"/>
      <point x="330" y="968"/>
      <point x="588" y="968" type="curve"/>
      <point x="838" y="968"/>
      <point x="1054" y="764"/>
      <point x="1054" y="500" type="curve"/>
      <point x="1054" y="244"/>
      <point x="846" y="34"/>
    </contour>
  </outline>
</glyph>
<glyph name="u" format="2">
  <advance width="1078"/>
  <unicode hex="0075"/>
  <outline>
    <contour>
      <point x="120" y="448" type="line"/>
      <point x="124" y="196"/>
      <point x="300" y="-26"/>
      <point x="540" y="-26" type="curve"/>
      <point x="688" y="-26"/>
      <point x="816" y="60"/>
      <point x="898" y="206" type="curve"/>
      <point x="898" y="0" type="line"/>
      <point x="958" y="0" type="line"/>
      <point x="958" y="1000" type="line"/>
      <point x="898" y="1000" type="line"/>
      <point x="898" y="452" type="line"/>
      <point x="898" y="222"/>
      <point x="736" y="34"/>
      <point x="540" y="34" type="curve"/>
      <point x="342" y="34"/>
      <point x="180" y="222"/>
      <point x="180" y="452" type="curve"/>
      <point x="180" y="1000" type="line"/>
      <point x="120" y="1000" type="line"/>
    </contour>
  </outline>
</glyph>
<glyph name="x" format="2">
  <advance width="966"/>
  <unicode hex="0078"/>
  <outline>
    <contour>
      <point x="80" y="0" type="line"/>
      <point x="154" y="0" type="line"/>
      <point x="484" y="452" type="line"/>
      <point x="812" y="0" type="line"/>
      <point x="886" y="0" type="line"/>
      <point x="520" y="502" type="line"/>
      <point x="886" y="1004" type="line"/>
      <point x="812" y="1004" type="line"/>
      <point x="484" y="554" type="line"/>
      <point x="154" y="1004" type="line"/>
      <point x="80" y="1004" type="line"/>
      <point x="446" y="502" type="line"/>
    </contour>
  </outline>
</glyph>
<glyph name="z" format="2">
  <advance width="1054"/>
  <unicode hex="007A"/>
  <outline>
    <contour>
      <point x="954" y="940" type="line"/>
      <point x="954" y="1000" type="line"/>
      <point x="100" y="1000" type="line"/>
      <point x="100" y="940" type="line"/>
      <point x="874" y="940" type="line"/>
      <point x="100" y="60" type="line"/>
      <point x="100" y="0" type="line"/>
      <point x="954" y="0" type="line"/>
      <point x="954" y="60" type="line"/>
      <point x="180" y="60" type="line"/>
    </contour>
  </outline>
</glyph>
<glyph name="asciitilde" format="2">
  <advance width="1161"/>
  <unicode hex="007E"/>
  <outline>
    <contour>
      <point x="847" y="443" type="curve" smooth="yes"/>
      <point x="993" y="443"/>
      <point x="1117" y="581"/>
      <point x="1071" y="731" type="curve"/>
      <point x="1013" y="713" type="line"/>
      <point x="1043" y="607"/>
      <point x="959" y="505"/>
      <point x="849" y="505" type="curve" smooth="yes"/>
      <point x="697" y="505"/>
      <point x="465" y="757"/>
      <point x="311" y="757" type="curve" smooth="yes"/>
      <point x="157" y="757"/>
      <point x="47" y="605"/>
      <point x="89" y="467" type="curve"/>
      <point x="147" y="481" type="line"/>
      <point x="119" y="593"/>
      <point x="201" y="697"/>
      <point x="309" y="695" type="curve" smooth="yes"/>
      <point x="441" y="697"/>
      <point x="683" y="443"/>
    </contour>
  </outline>
</glyph>
<glyph name="copyright" format="2">
  <advance width="1724"/>
  <unicode hex="00A9"/>
  <outline>
    <contour>
      <point x="862" y="-138" type="curve" smooth="yes"/>
      <point x="1294" y="-138"/>
      <point x="1644" y="212"/>
      <point x="1644" y="644" type="curve" smooth="yes"/>
      <point x="1644" y="1076"/>
      <point x="1294" y="1426"/>
      <point x="862" y="1426" type="curve" smooth="yes"/>
      <point x="430" y="1426"/>
      <point x="80" y="1076"/>
      <point x="80" y="644" type="curve" smooth="yes"/>
      <point x="80" y="212"/>
      <point x="430" y="-138"/>
    </contour>
    <contour>
      <point x="862" y="-78" type="curve" smooth="yes"/>
      <point x="470" y="-78"/>
      <point x="140" y="238"/>
      <point x="140" y="644" type="curve" smooth="yes"/>
      <point x="140" y="1040"/>
      <point x="464" y="1362"/>
      <point x="862" y="1366" type="curve" smooth="yes"/>
      <point x="1254" y="1370"/>
      <point x="1584" y="1046"/>
      <point x="1584" y="644" type="curve" smooth="yes"/>
      <point x="1584" y="252"/>
      <point x="1266" y="-78"/>
    </contour>
    <component base="c" xOffset="314" yOffset="144"/>
  </outline>
</glyph>
<glyph name="logicalnot" format="2">
  <advance width="934"/>
  <unicode hex="00AC"/>
  <outline>
    <contour>
      <point x="794" y="335" type="line"/>
      <point x="854" y="335" type="line"/>
      <point x="854" y="865" type="line"/>
      <point x="80" y="865" type="line"/>
      <point x="80" y="805" type="line"/>
      <point x="794" y="805" type="line"/>
    </contour>
  </outline>
</glyph>
<glyph name="macron" format="2">
  <advance width="1200"/>
  <unicode hex="00AF"/>
  <outline>
    <contour>
      <point x="262" y="1322" type="line"/>
      <point x="262" y="1262" type="line"/>
      <point x="938" y="1262" type="line"/>
      <point x="938" y="1322" type="line"/>
    </contour>
  </outline>
</glyph>
<glyph name="onesuperior" format="2">
  <advance width="401"/>
  <unicode hex="00B9"/>
  <outline>
    <contour>
      <point x="185" y="818" type="line"/>
      <point x="257" y="818" type="line"/>
      <point x="257" y="1449" type="line"/>
      <point x="106" y="1449" type="line"/>
      <point x="96" y="1377" type="line"/>
      <point x="185" y="1377" type="line"/>
    </contour>
  </outline>
</glyph>
<glyph name="questiondown" format="2">
  <advance width="884"/>
  <unicode hex="00BF"/>
  <outline>
    <contour>
      <point x="442" y="-428" type="curve" smooth="yes"/>
      <point x="642" y="-428"/>
      <point x="804" y="-266"/>
      <point x="804" y="-66" type="curve"/>
      <point x="744" y="-66" type="line"/>
      <point x="744" y="-232"/>
      <point x="608" y="-368"/>
      <point x="442" y="-368" type="curve" smooth="yes"/>
      <point x="276" y="-368"/>
      <point x="140" y="-232"/>
      <point x="140" y="-66" type="curve" smooth="yes"/>
      <point x="140" y="48"/>
      <point x="198" y="150"/>
      <point x="292" y="202" type="curve" smooth="yes"/>
      <point x="396" y="260"/>
      <point x="458" y="365"/>
      <point x="458" y="480" type="curve"/>
      <point x="398" y="480" type="line"/>
      <point x="398" y="384"/>
      <point x="347" y="299"/>
      <point x="264" y="254" type="curve" smooth="yes"/>
      <point x="150" y="194"/>
      <point x="80" y="70"/>
      <point x="80" y="-66" type="curve" smooth="yes"/>
      <point x="80" y="-266"/>
      <point x="242" y="-428"/>
    </contour>
    <contour>
      <point x="442" y="936" type="curve" smooth="yes"/>
      <point x="466" y="936"/>
      <point x="486" y="956"/>
      <point x="486" y="980" type="curve" smooth="yes"/>
      <point x="486" y="1006"/>
      <point x="466" y="1026"/>
      <point x="442" y="1026" type="curve" smooth="yes"/>
      <point x="416" y="1026"/>
      <point x="396" y="1006"/>
      <point x="396" y="980" type="curve" smooth="yes"/>
      <point x="396" y="956"/>
      <point x="416" y="936"/>
    </contour>
  </outline>
</glyph>
<glyph name="igrave" format="2">
  <advance width="300"/>
  <unicode hex="00EC"/>
  <outline>
    <contour>
      <point x="120" y="1000" type="line"/>
      <point x="120" y="0" type="line"/>
      <point x="180" y="0" type="line"/>
      <point x="180" y="1000" type="line"/>
    </contour>
    <component base="grave" xOffset="-300"/>
  </outline>
</glyph>
<glyph name="icircumflex" format="2">
  <advance width="282"/>
  <unicode hex="00EE"/>
  <outline>
    <contour>
      <point x="110" y="1000" type="line"/>
      <point x="110" y="0" type="line"/>
      <point x="170" y="0" type="line"/>
      <point x="170" y="1000" type="line"/>
    </contour>
    <component base="circumflexcomb" xOffset="-380"/>
  </outline>
</glyph>
<glyph name="divide" format="2">
  <advance width="1160"/>
  <unicode hex="00F7"/>
  <outline>
    <contour>
      <point x="80" y="570" type="line"/>
      <point x="1080" y="570" type="line"/>
      <point x="1080" y="630" type="line"/>
      <point x="80" y="630" type="line"/>
    </contour>
    <contour>
      <point x="580" y="1044" type="curve"/>
      <point x="532" y="1044"/>
      <point x="500" y="1002"/>
      <point x="500" y="962" type="curve"/>
      <point x="500" y="918"/>
      <point x="532" y="882"/>
      <point x="580" y="882" type="curve"/>
      <point x="622" y="882"/>
      <point x="658" y="918"/>
      <point x="658" y="962" type="curve"/>
      <point x="658" y="1002"/>
      <point x="622" y="1044"/>
    </contour>
    <contour>
      <point x="580" y="316" type="curve"/>
      <point x="532" y="316"/>
      <point x="500" y="276"/>
      <point x="500" y="234" type="curve"/>
      <point x="500" y="190"/>
      <point x="532" y="156"/>
      <point x="580" y="156" type="curve"/>
      <point x="622" y="156"/>
      <point x="662" y="190"/>
      <point x="662" y="234" type="curve"/>
      <point x="662" y="276"/>
      <point x="622" y="316"/>
    </contour>
  </outline>
</glyph>
<glyph name="thorn" format="2">
  <advance width="1194"/>
  <unicode hex="00FE"/>
  <outline>
    <contour>
      <point x="120" y="-500" type="line"/>
      <point x="180" y="-500" type="line"/>
      <point x="180" y="232" type="line"/>
      <point x="252" y="76"/>
      <point x="394" y="-28"/>
      <point x="588" y="-28" type="curve" smooth="yes"/>
      <point x="878" y="-28"/>
      <point x="1114" y="208"/>
      <point x="1114" y="500" type="curve" smooth="yes"/>
      <point x="1114" y="790"/>
      <point x="878" y="1026"/>
      <point x="588" y="1026" type="curve" smooth="yes"/>
      <point x="394" y="1026"/>
      <point x="252" y="922"/>
      <point x="180" y="766" type="curve"/>
      <point x="180" y="1400" type="line"/>
      <point x="120" y="1400" type="line"/>
    </contour>
    <contour>
      <point x="588" y="32" type="curve" smooth="yes"/>
      <point x="330" y="32"/>
      <point x="184" y="244"/>
      <point x="184" y="500" type="curve" smooth="yes"/>
      <point x="184" y="760"/>
      <point x="334" y="966"/>
      <point x="588" y="966" type="curve" smooth="yes"/>
      <point x="846" y="966"/>
      <point x="1054" y="756"/>
      <point x="1054" y="500" type="curve" smooth="yes"/>
      <point x="1054" y="236"/>
      <point x="838" y="32"/>
    </contour>
  </outline>
</glyph>
<glyph name="circumflexcomb" format="2">
  <unicode hex="0302"/>
  <outline>
    <contour>
      <point x="502" y="1400" type="line"/>
      <point x="400" y="1166" type="line"/>
      <point x="450" y="1166" type="line"/>
      <point x="522" y="1334" type="line"/>
      <point x="592" y="1166" type="line"/>
      <point x="642" y="1166" type="line"/>
      <point x="542" y="1400" type="line"/>
    </contour>
  </outline>
</glyph>
<glyph name="tildecomb" format="2">
  <unicode hex="0303"/>
  <outline>
    <contour>
      <point x="756" y="1314" type="curve" smooth="yes"/>
      <point x="854" y="1314"/>
      <point x="924" y="1412"/>
      <point x="896" y="1498" type="curve"/>
      <point x="840" y="1480" type="line"/>
      <point x="852" y="1448"/>
      <point x="820" y="1374"/>
      <point x="772" y="1374" type="curve" smooth="yes"/>
      <point x="686" y="1374"/>
      <point x="546" y="1520"/>
      <point x="444" y="1520" type="curve" smooth="yes"/>
      <point x="348" y="1520"/>
      <point x="278" y="1420"/>
      <point x="306" y="1338" type="curve"/>
      <point x="364" y="1354" type="line"/>
      <point x="350" y="1410"/>
      <point x="390" y="1460"/>
      <point x="438" y="1460" type="curve" smooth="yes"/>
      <point x="530" y="1460"/>
      <point x="658" y="1314"/>
    </contour>
  </outline>
</glyph>
<glyph name="quoteleft" format="2">
  <advance width="222"/>
  <unicode hex="2018"/>
  <unicode hex="02BB"/>
  <outline>
    <contour>
      <point x="60" y="878" type="line"/>
      <point x="120" y="878" type="line"/>
      <point x="182" y="1400" type="line"/>
      <point x="142" y="1400" type="line"/>
    </contour>
  </outline>
</glyph>
<glyph name="dagger" format="2">
  <advance width="736"/>
  <unicode hex="2020"/>
  <outline>
    <contour>
      <point x="80" y="1140" type="line"/>
      <point x="338" y="1140" type="line"/>
      <point x="338" y="600" type="line"/>
      <point x="398" y="600" type="line"/>
      <point x="398" y="1140" type="line"/>
      <point x="656" y="1140" type="line"/>
      <point x="656" y="1200" type="line"/>
      <point x="398" y="1200" type="line"/>
      <point x="398" y="1500" type="line"/>
      <point x="338" y="1500" type="line"/>
      <point x="338" y="1200" type="line"/>
      <point x="80" y="1200" type="line"/>
    </contour>
  </outline>
</glyph>
<glyph name="daggerdbl" format="2">
  <advance width="736"/>
  <unicode hex="2021"/>
  <outline>
    <contour>
      <point x="80" y="822" type="line"/>
      <point x="338" y="822" type="line"/>
      <point x="338" y="560" type="line"/>
      <point x="398" y="560" type="line"/>
      <point x="398" y="822" type="line"/>
      <point x="656" y="822" type="line"/>
      <point x="656" y="880" type="line"/>
      <point x="398" y="880" type="line"/>
      <point x="398" y="1140" type="line"/>
      <point x="656" y="1140" type="line"/>
      <point x="656" y="1200" type="line"/>
      <point x="398" y="1200" type="line"/>
      <point x="398" y="1500" type="line"/>
      <point x="338" y="1500" type="line"/>
      <point x="338" y="1200" type="line"/>
      <point x="80" y="1200" type="line"/>
      <point x="80" y="1140" type="line"/>
      <point x="338" y="1140" type="line"/>
      <point x="338" y="880" type="line"/>
      <point x="80" y="880" type="line"/>
    </contour>
  </outline>
</glyph>
<glyph name="guilsinglright" format="2">
  <advance width="600"/>
  <unicode hex="203A"/>
  <outline>
    <contour>
      <point x="100" y="261" type="line"/>
      <point x="180" y="261" type="line"/>
      <point x="480" y="601" type="line"/>
      <point x="180" y="939" type="line"/>
      <point x="100" y="939" type="line"/>
      <point x="400" y="601" type="line"/>
    </contour>
  </outline>
</glyph>
<glyph name="foursuperior" format="2">
  <advance width="674"/>
  <unicode hex="2074"/>
  <outline>
    <contour>
      <point x="379" y="818" type="line"/>
      <point x="451" y="818" type="line"/>
      <point x="451" y="957" type="line"/>
      <point x="530" y="957" type="line"/>
      <point x="530" y="1029" type="line"/>
      <point x="451" y="1029" type="line"/>
      <point x="451" y="1449" type="line"/>
      <point x="353" y="1449" type="line"/>
      <point x="96" y="1043" type="line"/>
      <point x="96" y="957" type="line"/>
      <point x="379" y="957" type="line"/>
    </contour>
    <contour>
      <point x="173" y="1029" type="line"/>
      <point x="379" y="1353" type="line"/>
      <point x="379" y="1029" type="line"/>
    </contour>
  </outline>
</glyph>
<glyph name="sixsuperior" format="2">
  <advance width="706"/>
  <unicode hex="2076"/>
  <outline>
    <contour>
      <point x="329" y="798" type="curve" smooth="yes"/>
      <point x="451" y="798"/>
      <point x="562" y="882"/>
      <point x="562" y="1019" type="curve" smooth="yes"/>
      <point x="562" y="1161"/>
      <point x="425" y="1283"/>
      <point x="274" y="1245" type="curve"/>
      <point x="390" y="1446" type="line"/>
      <point x="306" y="1446" type="line"/>
      <point x="133" y="1154"/>
      <point x="96" y="1098"/>
      <point x="96" y="1019" type="curve" smooth="yes"/>
      <point x="96" y="897"/>
      <point x="192" y="798"/>
    </contour>
    <contour>
      <point x="329" y="870" type="curve" smooth="yes"/>
      <point x="240" y="870"/>
      <point x="168" y="930"/>
      <point x="168" y="1017" type="curve" smooth="yes"/>
      <point x="168" y="1108"/>
      <point x="240" y="1180"/>
      <point x="329" y="1180" type="curve" smooth="yes"/>
      <point x="408" y="1180"/>
      <point x="490" y="1118"/>
      <point x="490" y="1019" type="curve" smooth="yes"/>
      <point x="490" y="930"/>
      <point x="418" y="870"/>
    </contour>
  </outline>
</glyph>
<glyph name="sevensuperior" format="2">
  <advance width="612"/>
  <unicode hex="2077"/>
  <outline>
    <contour>
      <point x="136" y="818" type="line"/>
      <point x="220" y="818" type="line"/>
      <point x="540" y="1377" type="line"/>
      <point x="540" y="1449" type="line"/>
      <point x="120" y="1449" type="line"/>
      <point x="120" y="1377" type="line"/>
      <point x="456" y="1377" type="line"/>
    </contour>
  </outline>
</glyph>
<glyph name="ninesuperior" format="2">
  <advance width="659"/>
  <unicode hex="2079"/>
  <outline>
    <contour>
      <point x="243" y="818" type="line"/>
      <point x="325" y="818" type="line"/>
      <point x="503" y="1122" type="line"/>
      <point x="503" y="1125"/>
      <point x="505" y="1127"/>
      <point x="507" y="1132" type="curve" smooth="yes"/>
      <point x="599" y="1286"/>
      <point x="483" y="1468"/>
      <point x="306" y="1468" type="curve" smooth="yes"/>
      <point x="227" y="1468"/>
      <point x="147" y="1439"/>
      <point x="104" y="1362" type="curve" smooth="yes"/>
      <point x="1" y="1187"/>
      <point x="162" y="971"/>
      <point x="361" y="1022" type="curve"/>
    </contour>
    <contour>
      <point x="306" y="1086" type="curve" smooth="yes"/>
      <point x="241" y="1086"/>
      <point x="171" y="1130"/>
      <point x="150" y="1206" type="curve" smooth="yes"/>
      <point x="126" y="1310"/>
      <point x="203" y="1396"/>
      <point x="306" y="1396" type="curve" smooth="yes"/>
      <point x="371" y="1396"/>
      <point x="440" y="1365"/>
      <point x="462" y="1288" type="curve" smooth="yes"/>
      <point x="486" y="1182"/>
      <point x="409" y="1086"/>
    </contour>
  </outline>
</glyph>
<glyph name="sixinferior" format="2">
  <advance width="682"/>
  <unicode hex="2086"/>
  <outline>
    <contour>
      <point x="329" y="-31" type="curve"/>
      <point x="451" y="-31"/>
      <point x="562" y="53"/>
      <point x="562" y="190" type="curve"/>
      <point x="562" y="331"/>
      <point x="425" y="454"/>
      <point x="274" y="415" type="curve" smooth="yes"/>
      <point x="391" y="619" type="line"/>
      <point x="307" y="619" type="line" smooth="yes"/>
      <point x="134" y="326"/>
      <point x="96" y="269"/>
      <point x="96" y="190" type="curve"/>
      <point x="96" y="67"/>
      <point x="192" y="-31"/>
    </contour>
    <contour>
      <point x="329" y="41" type="curve"/>
      <point x="240" y="41"/>
      <point x="168" y="101"/>
      <point x="168" y="187" type="curve"/>
      <point x="168" y="278"/>
      <point x="240" y="350"/>
      <point x="329" y="350" type="curve"/>
      <point x="408" y="350"/>
      <point x="490" y="288"/>
      <point x="490" y="190" type="curve"/>
      <point x="490" y="101"/>
      <point x="418" y="41"/>
    </contour>
  </outline>
</glyph>
<glyph name="leftArrow" format="2">
  <advance width="1342"/>
  <unicode hex="2190"/>
  <outline>
    <contour>
      <point x="546" y="284" type="line"/>
      <point x="588" y="326" type="line"/>
      <point x="194" y="720" type="line"/>
      <point x="1262" y="720" type="line"/>
      <point x="1262" y="780" type="line"/>
      <point x="194" y="780" type="line"/>
      <point x="588" y="1174" type="line"/>
      <point x="546" y="1216" type="line"/>
      <point x="80" y="750" type="line"/>
    </contour>
  </outline>
</glyph>
<glyph name="leftRightArrow" format="2">
  <advance width="1562"/>
  <unicode hex="2194"/>
  <outline>
    <contour>
      <point x="546" y="284" type="line"/>
      <point x="588" y="326" type="line"/>
      <point x="194" y="720" type="line"/>
      <point x="1366" y="720" type="line"/>
      <point x="972" y="326" type="line"/>
      <point x="1014" y="284" type="line"/>
      <point x="1482" y="750" type="line"/>
      <point x="1014" y="1216" type="line"/>
      <point x="972" y="1174" type="line"/>
      <point x="1366" y="780" type="line"/>
      <point x="194" y="780" type="line"/>
      <point x="588" y="1174" type="line"/>
      <point x="546" y="1216" type="line"/>
      <point x="80" y="750" type="line"/>
    </contour>
  </outline>
</glyph>
<glyph name="northWestArrow" format="2">
  <advance width="1018"/>
  <unicode hex="2196"/>
  <outline>
    <contour>
      <point x="896" y="322" type="line"/>
      <point x="938" y="364" type="line"/>
      <point x="184" y="1118" type="line"/>
      <point x="740" y="1118" type="line"/>
      <point x="740" y="1178" type="line"/>
      <point x="80" y="1178" type="line"/>
      <point x="80" y="518" type="line"/>
      <point x="140" y="518" type="line"/>
      <point x="140" y="1076" type="line"/>
    </contour>
  </outline>
</glyph>
<glyph name="integral" format="2">
  <advance width="727"/>
  <unicode hex="222B"/>
  <outline>
    <contour>
      <point x="199" y="-26" type="curve"/>
      <point x="283" y="-24"/>
      <point x="333" y="16"/>
      <point x="341" y="94" type="curve"/>
      <point x="445" y="1302" type="line"/>
      <point x="447" y="1334"/>
      <point x="479" y="1372"/>
      <point x="523" y="1366" type="curve"/>
      <point x="561" y="1364"/>
      <point x="591" y="1330"/>
      <point x="589" y="1290" type="curve"/>
      <point x="647" y="1284" type="line"/>
      <point x="653" y="1358"/>
      <point x="599" y="1420"/>
      <point x="527" y="1426" type="curve"/>
      <point x="459" y="1430"/>
      <point x="395" y="1386"/>
      <point x="385" y="1308" type="curve"/>
      <point x="281" y="98" type="line"/>
      <point x="275" y="58"/>
      <point x="243" y="30"/>
      <point x="205" y="34" type="curve"/>
      <point x="163" y="42"/>
      <point x="135" y="72"/>
      <point x="141" y="110" type="curve"/>
      <point x="81" y="116" type="line"/>
      <point x="71" y="42"/>
      <point x="131" y="-24"/>
    </contour>
  </outline>
</glyph>
